<?xml version="1.0" encoding="UTF-8"?>
<!DOCTYPE svg PUBLIC "-//W3C//DTD SVG 1.1//EN" "http://www.w3.org/Graphics/SVG/1.1/DTD/svg11.dtd">
<svg version="1.1" xmlns="http://www.w3.org/2000/svg" xmlns:xlink="http://www.w3.org/1999/xlink" width="300" height="88"  xml:space="preserve">
    <defs>
        <filter id="infinityShadow-outer" filterUnits="userSpaceOnUse">
            <feGaussianBlur stdDeviation="1.75" />
            <feOffset dx="2.1" dy="2.1" result="blur" />
            <feFlood flood-color="rgb(0, 51, 0)" flood-opacity="0.47" />
            <feComposite in2="blur" operator="in" result="colorShadow" />
            <feComposite in="SourceGraphic" in2="colorShadow" operator="over" />
        </filter>
    </defs>
    <path id="channelZPath" stroke="none" fill="rgb(44, 44, 44)" d="M 50.7,4.91 L 52.46,11.39 C 52.03,15.04 50.88,20.05 49.03,26.42 47.58,23.02 46.07,19.9 44.49,17.07 40.62,15.51 36.82,14.73 33.09,14.73 27,14.73 22.24,16.53 18.82,20.12 15.39,23.73 13.67,27.96 13.67,32.8 13.67,35.46 14.39,37.75 15.83,39.66 17.26,41.55 20,43.31 24.04,44.93 28.1,46.55 33.18,47.78 39.27,48.6 41.3,48.89 43.38,49.12 45.51,49.3 47.64,49.47 49.98,49.61 52.51,49.71 55.05,49.81 57.43,49.86 59.63,49.86 L 54.48,56.62 C 46.86,58.05 39.67,58.76 32.92,58.76 23.99,58.76 17.47,57.05 13.34,53.63 9.18,50.24 7.1,45.82 7.1,40.39 7.1,34.38 8.83,28.46 12.29,22.64 15.71,16.82 20.4,12.3 26.35,9.07 32.31,5.85 38.28,4.24 44.25,4.24 46.25,4.24 48.39,4.46 50.7,4.91 Z M 59.22,8.02 L 69.13,4.91 68.83,16.05 68.83,23.25 73.55,18.36 73.9,18.36 C 77.89,19.59 80.51,20.89 81.78,22.26 83.05,23.64 83.69,26.03 83.69,29.41 83.69,30.6 83.5,32.67 83.13,35.62 82.92,37.18 82.74,39.4 82.6,42.27 79.75,44.63 76.57,46.88 73.05,49.01 73.91,42.05 74.41,37.59 74.55,35.62 L 73.46,28.67 C 73.36,28.24 72.8,26.54 71.76,23.55 70.42,25.32 69.44,26.53 68.83,27.15 L 68.83,34.56 C 68.83,34.66 68.81,35.35 68.77,36.64 68.72,37.83 68.69,38.8 68.69,39.54 68.69,40.15 68.74,41.3 68.83,43 66.74,43.08 63.25,43.48 58.34,44.2 58.64,41.82 58.84,38.68 58.96,34.8 59.06,30.89 59.15,21.96 59.22,8.02 Z M 96.23,25.36 L 96.87,36.88 C 97.94,35.69 99.01,34.34 100.06,32.85 101.12,31.35 102.02,29.95 102.76,28.64 101.68,27.1 99.51,26.01 96.23,25.36 Z M 96.34,18.3 C 96.64,18.38 98.4,18.72 101.65,19.33 104.58,19.86 106.51,20.27 107.45,20.56 108.36,20.89 109.23,21.42 110.05,22.14 110.87,22.86 111.49,23.88 111.9,25.19 112.31,26.48 112.51,28.22 112.51,30.43 L 112.37,39.04 C 112.37,40.06 112.47,41.25 112.66,42.62 110.84,42.91 107.51,43.75 102.67,45.14 103.02,42.46 103.2,38.78 103.2,34.09 102.87,34.64 101.9,35.79 100.3,37.55 98.7,39.31 96.41,41.71 93.44,44.76 91.16,44.15 89.4,43.57 88.17,43 88.09,42.26 87.93,41.11 87.7,39.54 87.37,37.1 87.2,34.89 87.2,32.92 87.2,30.07 87.8,27.67 88.99,25.71 90.14,23.78 92.59,21.31 96.34,18.3 Z M 124.17,19.09 L 126.99,18.24 126.99,22.08 C 127.53,21.75 128.51,21.18 129.92,20.38 130.39,20.13 130.84,19.86 131.29,19.56 L 133.78,18.07 C 135.6,18.32 136.99,18.63 137.94,19.01 138.86,19.38 139.62,19.93 140.23,20.68 140.82,21.4 141.22,22.13 141.43,22.87 141.63,23.54 141.72,24.64 141.72,26.18 141.72,28.02 141.55,30.19 141.2,32.69 140.83,35.34 140.62,37.63 140.58,39.54 L 135.16,43 134.34,43.56 C 132.78,44.63 131.5,45.36 130.5,45.75 131.64,40.34 132.2,36.11 132.2,33.04 132.2,29.35 131.39,26.11 129.77,23.31 129.71,23.39 129.36,23.74 128.72,24.37 L 128.19,24.95 126.99,26.15 127.13,43 C 123.95,43.1 120.64,43.57 117.2,44.41 117.2,43.39 117.21,42.72 117.23,42.38 117.27,41.17 117.29,40.45 117.29,40.22 L 117.29,39.54 C 117.23,38.72 117.2,38.15 117.2,37.81 L 117.2,30.9 C 117.2,27.4 117.14,24.27 117.03,21.5 117.28,21.42 117.57,21.33 117.91,21.22 118.24,21.11 118.61,20.99 119.03,20.85 119.45,20.71 119.9,20.56 120.37,20.38 L 124.17,19.09 Z M 152.92,19.09 L 155.73,18.24 155.73,22.08 C 156.27,21.75 157.25,21.18 158.66,20.38 159.13,20.13 159.58,19.86 160.03,19.56 L 162.52,18.07 C 164.34,18.32 165.73,18.63 166.68,19.01 167.6,19.38 168.36,19.93 168.97,20.68 169.56,21.4 169.96,22.13 170.17,22.87 170.37,23.54 170.46,24.64 170.46,26.18 170.46,28.02 170.29,30.19 169.94,32.69 169.57,35.34 169.36,37.63 169.32,39.54 L 163.9,43 163.08,43.56 C 161.52,44.63 160.24,45.36 159.24,45.75 160.38,40.34 160.94,36.11 160.94,33.04 160.94,29.35 160.13,26.11 158.51,23.31 158.45,23.39 158.1,23.74 157.46,24.37 L 156.93,24.95 155.73,26.15 155.87,43 C 152.69,43.1 149.38,43.57 145.94,44.41 145.94,43.39 145.95,42.72 145.97,42.38 146.01,41.17 146.03,40.45 146.03,40.22 L 146.03,39.54 C 145.97,38.72 145.94,38.15 145.94,37.81 L 145.94,30.9 C 145.94,27.4 145.88,24.27 145.77,21.5 146.02,21.42 146.31,21.33 146.65,21.22 146.98,21.11 147.35,20.99 147.77,20.85 148.19,20.71 148.64,20.56 149.11,20.38 L 152.92,19.09 Z M 183.76,24.1 L 183,31.25 C 184.7,31.25 186.53,31.19 188.48,31.08 188.52,29.79 188.54,29.17 188.54,29.23 188.54,27.57 188.1,26.32 187.22,25.48 186.32,24.62 185.17,24.16 183.76,24.1 Z M 174.92,23.81 L 181.51,18.21 189.39,18.8 C 191.93,19.02 193.73,19.65 194.78,20.71 195.87,21.8 196.42,22.99 196.42,24.28 196.42,24.85 196.34,25.58 196.19,26.48 195.97,27.53 195.75,29.1 195.51,31.19 192.84,32.58 190.81,33.39 189.42,33.62 188.01,33.86 186.67,33.98 185.38,33.98 184.89,33.98 184.28,33.93 183.56,33.83 185.47,36.21 187.34,37.4 189.16,37.4 191.3,37.4 193.24,36.59 194.96,34.97 L 195.19,34.97 C 193.24,41.07 189.62,44.11 184.35,44.11 181.62,44.11 179.63,43.73 178.4,42.97 177.17,42.21 176.24,41.11 175.59,39.66 174.93,38.25 174.59,35.59 174.59,31.66 L 174.74,26.65 174.92,23.81 Z M 201.34,7.84 L 207.08,6.38 211.42,5.21 210.19,26.83 209.75,35.32 C 211.2,36.36 212.83,37.4 214.64,38.46 L 214.64,38.66 C 212.32,40.83 210.37,42.97 208.78,45.08 206.09,44.51 204.08,43.35 202.75,41.58 201.42,39.81 200.76,37.43 200.76,34.45 200.76,33.25 200.82,31.3 200.93,28.59 201.05,25.97 201.19,19.05 201.34,7.84 Z M 281.73,43.26 L 282.08,43.35 274.15,56.51 C 273.74,56.62 272.74,56.98 271.16,57.59 268.91,58.43 266.81,59.04 264.86,59.44 262.85,59.83 260.41,60.02 257.53,60.02 254.39,60.02 251.41,59.77 248.6,59.26 245.86,58.77 241.86,57.78 236.59,56.27 232.54,55.14 229.44,54.39 227.27,54.02 225.16,53.66 222.17,53.41 218.31,53.25 L 222.58,46.08 248.04,37.93 274.79,29.44 C 270.84,28.67 267.11,27.84 263.6,26.95 260.08,26.05 256.52,25 252.91,23.8 249.29,22.59 245.85,21.33 242.59,19.99 239.33,18.65 235.79,17.05 231.96,15.2 224.67,19.71 219.68,22.7 216.99,24.16 L 216.84,23.96 C 219.18,21.67 224.65,15.76 233.25,6.23 L 240.25,4.42 C 246.23,7.35 251.8,9.87 256.96,11.99 262.13,14.11 266.79,15.76 270.95,16.96 274.96,18.11 278.98,19.12 283.02,19.99 287.07,20.86 291.12,21.55 295.18,22.08 292.6,24.04 289.76,26.11 286.66,28.31 283.55,30.5 280.48,32.6 277.46,34.59 276.87,34.79 275.84,35.09 274.37,35.5 272.89,35.91 271.02,36.4 268.74,36.98 266.46,37.56 264.53,38.03 262.92,38.4 261.09,38.83 259.16,39.3 257.14,39.81 255.12,40.31 253.13,40.81 251.18,41.3 249.22,41.79 247.12,42.33 244.88,42.91 242.63,43.5 240.52,44.05 238.55,44.58 243.76,46.5 247.95,47.73 251.12,48.27 254.2,48.82 257.59,49.09 261.28,49.09 269.78,49.09 276.6,47.15 281.73,43.26 Z M 281.73,43.26" />
    <path id="infinityPath" stroke="none" fill="rgb(44, 44, 44)" filter="url(#infinityShadow-outer)" d="M 133.8,68.1 C 131.79,70.85 129.89,72.81 128.09,73.99 126.29,75.16 124.29,75.75 122.1,75.75 118.74,75.75 115.86,74.59 113.46,72.26 110.63,69.52 109.21,65.83 109.21,61.21 109.21,58.54 109.71,56.02 110.71,53.63 111.71,51.24 113.1,49.27 114.86,47.72 117.53,45.43 120.76,44.28 124.55,44.28 127.35,44.28 129.89,45.04 132.17,46.56 134.46,48.08 136.6,50.44 138.6,53.65 140.31,50.26 142.18,47.82 144.23,46.34 146.27,44.86 148.74,44.12 151.65,44.12 153.47,44.12 155.24,44.48 156.96,45.22 158.68,45.95 160.18,46.97 161.46,48.28 164.35,51.27 165.79,55.3 165.79,60.37 165.79,63.07 165.26,65.58 164.21,67.9 163.15,70.22 161.66,72.14 159.74,73.67 158.3,74.81 156.65,75.71 154.78,76.35 152.91,76.99 151.04,77.31 149.17,77.31 146.24,77.31 143.43,76.51 140.76,74.91 138.09,73.31 135.77,71.04 133.8,68.1 Z M 140.56,56.41 C 142.62,59.85 144.57,62.4 146.41,64.06 149.45,66.78 152.53,68.14 155.66,68.14 157.85,68.14 159.67,67.37 161.14,65.84 162.61,64.3 163.35,62.39 163.35,60.09 163.35,57.72 162.32,55.9 160.28,54.63 158.24,53.36 155.31,52.73 151.49,52.73 148.85,52.73 146.5,53.09 144.45,53.81 142.98,54.31 141.88,54.94 141.16,55.69 140.74,56.14 140.54,56.38 140.56,56.41 Z M 131.31,64.54 L 130.63,63.42 C 128.28,59.49 126.16,56.85 124.27,55.49 122.37,54.13 120.41,53.45 118.38,53.45 116.57,53.45 115.07,54.01 113.9,55.13 113.2,55.8 112.66,56.65 112.26,57.69 111.85,58.73 111.65,59.8 111.65,60.89 111.65,62.55 112.24,63.87 113.42,64.86 114.27,65.55 115.47,66.11 117.02,66.52 118.57,66.93 120.26,67.14 122.1,67.14 124.19,67.14 126,66.93 127.55,66.5 128.75,66.18 129.71,65.76 130.43,65.26 131.05,64.83 131.34,64.59 131.31,64.54 Z M 131.31,64.54" />
</svg>
